<?xml version="1.0" encoding="UTF-8" standalone="no"?>
<!-- Created with Inkscape (http://www.inkscape.org/) -->

<svg
   width="210mm"
   height="297mm"
   viewBox="0 0 210 297"
   version="1.1"
   id="svg5"
   inkscape:version="1.2.1 (9c6d41e410, 2022-07-14)"
   sodipodi:docname="WhereWhuis.svg"
   xmlns:inkscape="http://www.inkscape.org/namespaces/inkscape"
   xmlns:sodipodi="http://sodipodi.sourceforge.net/DTD/sodipodi-0.dtd"
   xmlns="http://www.w3.org/2000/svg"
   xmlns:svg="http://www.w3.org/2000/svg">
  <sodipodi:namedview
     id="namedview7"
     pagecolor="#ffffff"
     bordercolor="#000000"
     borderopacity="0.25"
     inkscape:showpageshadow="2"
     inkscape:pageopacity="0.0"
     inkscape:pagecheckerboard="0"
     inkscape:deskcolor="#d1d1d1"
     inkscape:document-units="mm"
     showgrid="false"
     inkscape:zoom="0.17795471"
     inkscape:cx="300.63829"
     inkscape:cy="977.77687"
     inkscape:window-width="1366"
     inkscape:window-height="745"
     inkscape:window-x="-8"
     inkscape:window-y="-8"
     inkscape:window-maximized="1"
     inkscape:current-layer="layer2" />
  <defs
     id="defs2" />
  <g
     inkscape:groupmode="layer"
     id="layer3"
     inkscape:label="Слой 3">
    <rect
       style="fill:#00ffff;stroke-width:0.264583"
       id="rect781"
       width="206.58583"
       height="41.527435"
       x="0.52566373"
       y="3.1539822" />
    <rect
       style="fill:#00ff00;stroke-width:0.293569"
       id="rect835"
       width="205.00885"
       height="145.60886"
       x="1.0513275"
       y="46.784069" />
    <path
       style="fill:#2ca02c;stroke-width:0.264583"
       d="m 165.58407,98.824776 c 25.23186,-3.153981 27.33451,-9.987608 33.64248,7.359294 6.30796,17.3469 10.51327,24.70619 -1.57699,32.59115 -12.09027,7.88495 -18.39824,9.46195 -31.01416,14.71858 -12.61593,5.25664 -24.18053,11.03894 -35.74514,7.88496 -11.5646,-3.15398 -2.10265,-16.29558 13.1416,-24.18053 15.24424,-7.88496 28.9115,-18.9239 26.28318,-24.7062 -2.62832,-5.7823 -4.73097,-13.667254 -4.73097,-13.667254 z"
       id="path943" />
    <path
       style="fill:#2ca02c;stroke-width:0.264583"
       d="m 77.272564,181.87964 c 17.872567,-14.71858 13.141595,-16.82123 30.488496,-16.29557 17.3469,0.52566 29.96283,-5.25664 36.79646,-5.7823 6.83363,-0.52567 17.87257,-6.30797 26.28318,-1.05133 8.41062,5.25664 15.76992,16.29558 2.10266,24.18053 -13.66726,7.88496 -95.670796,-1.05133 -95.670796,-1.05133 z"
       id="path1107" />
  </g>
  <g
     inkscape:groupmode="layer"
     id="layer2"
     inkscape:label="Слой 2">
    <path
       style="fill:#ff9955;stroke-width:0.264583"
       d="M 81.774082,156.85756 167.26517,89.95149 91.438292,60.958862 31.966233,121.17432 Z"
       id="path502" />
    <path
       style="fill:#c87137;stroke-width:0.264583"
       d="M 73.968374,150.53865 152.39715,83.632584 138.27254,78.42878 65.047566,142.73294 Z"
       id="path558" />
    <path
       style="fill:#502d16;stroke-width:0.264583"
       d="M 49.807849,133.81214 112.99692,69.50797 99.244001,64.675866 40.143641,126.74983 Z"
       id="path614" />
    <path
       style="fill:#502d16;stroke-width:0.264583"
       d="m 170.8407,93.042477 8.41062,-41.00177 4.73098,42.578761 z"
       id="path670" />
    <path
       style="fill:#008000;stroke-width:0.264583"
       d="m 187.66194,77.272564 c 12.61593,-11.564601 19.97523,-24.18053 6.83363,-34.693804 -13.14159,-10.513274 -5.7823,-25.231857 -19.97522,-18.398229 -14.19292,6.833628 -25.75752,15.244248 -19.44956,28.38584 6.30797,13.141592 32.59115,24.706193 32.59115,24.706193 z"
       id="path672" />
    <path
       style="fill:#806600;stroke-width:0.264583"
       d="m 142.45487,111.44071 23.65486,-17.346906 0.52567,14.192916 -20.50089,13.66726 z"
       id="path1109" />
    <path
       style="fill:#2b2200;stroke-width:0.264583"
       d="m 146.66017,123.00531 21.02655,-14.19292 6.83363,3.15398 -19.44956,17.87257 z"
       id="path1219" />
    <path
       style="fill:#806600;stroke-width:0.264583"
       d="m 175.57168,118.8 -0.52566,12.61593 -12.61593,8.41062 -1.577,-8.93629 z"
       id="path1275" />
    <path
       style="fill:#2b2200;stroke-width:0.264583"
       d="m 177.67433,136.67256 -12.61592,7.88496 9.46194,6.83363 16.29558,-13.14159 -9.46195,-5.7823 z"
       id="path1277" />
    <path
       style="fill:#504416;stroke-width:0.264583"
       d="m 135.62124,110.38938 42.57876,39.95044 -4.73097,7.35929 -42.57877,-42.57876 z"
       id="path1279" />
    <rect
       style="fill:#c8ab37;stroke-width:0.364433"
       id="rect1387"
       width="207.63716"
       height="106.70973"
       x="1.0513275"
       y="189.76459" />
    <path
       style="fill:#2c89a0;stroke-width:0.264583"
       d="m 195.02124,178.2 c -6.30797,3.67964 -21.02655,19.44956 -47.30974,24.70619 -26.28318,5.25664 -35.74513,26.80885 -68.336279,29.96283 -32.591152,3.15399 -37.322124,17.87257 -54.669027,19.97522 -17.3469021,2.10266 -31.0141585,42.05309 -25.23185771,43.63009 5.78230081,1.57699 60.97699071,0 89.36283171,-0.52565 28.385842,-0.52568 48.361062,-2.10267 69.387612,-2.10267 21.02654,0 33.11681,-1.05132 34.16814,-12.09027 1.05133,-11.03892 13.66725,-51.51504 13.66725,-51.51504 l -0.52566,-41.00176 1.57699,-23.65487 z"
       id="path1495" />
    <path
       style="fill:#44aa00;stroke-width:0.264583"
       d="m 54.669025,188.71327 c -19.975221,-16.29557 -29.437167,-6.30796 -39.950441,-6.30796 -10.5132743,0 -26.283186,5.25663 -12.0902655,12.09026 14.1929205,6.83363 39.9504415,5.7823 53.0920335,6.83363 13.141595,1.05133 32.59115,-5.7823 24.180533,-9.46195 -8.41062,-3.67964 -25.23186,-3.15398 -25.23186,-3.15398 z"
       id="path1605" />
    <ellipse
       style="fill:#ccff00;stroke-width:0.264583"
       id="path1817"
       cx="33.453033"
       cy="24.903925"
       rx="12.615929"
       ry="14.19292" />
    <path
       style="fill:#008066;stroke-width:0.264583"
       d="m 68.76457,18.213318 c 0,-7.434007 17.469916,-14.4963143 27.505826,-11.8944116 10.035914,2.6019026 26.390724,-5.94720603 26.390724,4.0887036 0,10.03591 -6.3189,9.66421 -17.09821,11.151012 C 94.783597,23.045423 78.42878,26.762427 73.596674,24.160524 68.76457,21.558622 68.76457,18.213318 68.76457,18.213318 Z"
       id="path1873" />
    <path
       style="fill:#2ca02c;stroke-width:0.264583"
       d="M 51.294651,43.117243 C 34.939835,72.109871 48.321049,85.491086 37.170037,93.668494 26.019026,101.8459 5.9472059,107.79311 2.2302022,107.04971 -1.4868015,106.30631 -3.7170037,66.906068 2.9736031,63.932463 9.6642096,60.958862 28.249229,50.551251 31.222831,46.834247 c 2.973604,-3.717004 20.07182,-3.717004 20.07182,-3.717004 z"
       id="path1929" />
  </g>
  <g
     inkscape:label="Слой 1"
     inkscape:groupmode="layer"
     id="layer1">
    <path
       style="fill:#aa4400;stroke-width:0.264583"
       d="m 52.040707,95.145131 9.987611,-8.41062 12.090265,28.911509 c 0,0 52.566367,-19.449562 61.502657,-44.681419 8.93628,-25.231859 3.15398,-24.180532 3.15398,-24.180532 l 14.19292,-4.730972 c 0,0 -2.62832,42.053096 -11.5646,48.886726 C 132.46726,97.773449 83.58053,135.09557 70.964601,132.99292 58.348673,130.89026 52.040707,95.145131 52.040707,95.145131 Z"
       id="path113" />
    <path
       style="fill:#ff7f2a;stroke-width:0.264583"
       d="M 68.861947,105.13274 C 87.785838,79.900885 129.31327,62.028318 141.40354,65.182299 c 12.09026,3.153984 -8.93628,2.628321 -8.93628,2.628321 z"
       id="path169" />
    <path
       style="fill:#ff7f2a;stroke-width:0.264583"
       d="m 69.387611,107.2354 66.233629,-40.47611 5.7823,8.41062 -68.861948,38.89912 z"
       id="path225" />
    <path
       style="fill:#d45500;stroke-width:0.264583"
       d="M 69.387611,111.44071 C 134.56991,74.118583 141.40354,68.336283 141.40354,65.182299 c 0,-3.153981 -1.57699,13.141595 -9.46195,19.975222 C 124.05664,91.99115 78.849558,118.8 75.16991,116.69734 c -3.679645,-2.10265 -5.782299,-5.25663 -5.782299,-5.25663 z"
       id="path227" />
    <rect
       style="fill:#d45500;stroke-width:0.264583"
       id="rect335"
       width="6.3079643"
       height="57.297344"
       x="98.299118"
       y="29.437168" />
    <path
       style="fill:#008080;stroke-width:0.264583"
       d="m 86.734511,37.847788 c 0,0 41.527429,-12.61593 42.053099,-4.730975 C 129.31327,41.00177 130.89026,59.4 124.5823,63.605309 118.27433,67.81062 83.58053,78.849558 82.529203,74.118583 81.477876,69.387611 75.16991,43.630087 86.734511,37.847788 Z"
       id="path445" />
  </g>
</svg>
